<?xml version="1.0" encoding="UTF-8"?>
<svg xmlns="http://www.w3.org/2000/svg" version="1.1" width="300" height="300" viewBox="0 0 300 300"><rect x="0" y="0" width="300" height="300" fill="#ffffff"/><g transform="scale(12)"><g transform="translate(0,0)"><path fill-rule="evenodd" d="M8 0L8 2L10 2L10 4L8 4L8 9L9 9L9 10L11 10L11 15L10 15L10 16L11 16L11 15L12 15L12 17L9 17L9 16L8 16L8 15L7 15L7 14L8 14L8 13L7 13L7 12L8 12L8 10L6 10L6 9L7 9L7 8L5 8L5 10L2 10L2 11L3 11L3 12L4 12L4 13L3 13L3 14L0 14L0 15L2 15L2 16L0 16L0 17L2 17L2 16L5 16L5 15L7 15L7 16L6 16L6 17L8 17L8 18L9 18L9 19L8 19L8 20L9 20L9 22L8 22L8 25L10 25L10 23L9 23L9 22L10 22L10 21L11 21L11 24L12 24L12 25L13 25L13 23L12 23L12 22L13 22L13 19L15 19L15 21L14 21L14 23L16 23L16 25L17 25L17 24L20 24L20 25L21 25L21 24L22 24L22 23L21 23L21 20L22 20L22 19L21 19L21 17L22 17L22 14L23 14L23 13L22 13L22 10L23 10L23 12L25 12L25 8L23 8L23 9L21 9L21 8L17 8L17 9L16 9L16 7L17 7L17 6L16 6L16 7L15 7L15 5L14 5L14 4L16 4L16 3L14 3L14 2L15 2L15 0L14 0L14 2L13 2L13 0L11 0L11 1L9 1L9 0ZM16 0L16 2L17 2L17 0ZM11 1L11 2L12 2L12 1ZM11 3L11 4L12 4L12 6L11 6L11 5L9 5L9 8L10 8L10 6L11 6L11 7L12 7L12 6L13 6L13 9L12 9L12 8L11 8L11 10L13 10L13 11L12 11L12 13L14 13L14 15L13 15L13 14L12 14L12 15L13 15L13 17L12 17L12 19L13 19L13 18L14 18L14 17L15 17L15 19L16 19L16 16L14 16L14 15L15 15L15 13L14 13L14 11L15 11L15 12L16 12L16 13L18 13L18 12L19 12L19 11L20 11L20 15L21 15L21 11L20 11L20 10L21 10L21 9L20 9L20 10L19 10L19 11L18 11L18 9L17 9L17 12L16 12L16 11L15 11L15 7L14 7L14 5L13 5L13 3ZM0 8L0 11L1 11L1 9L3 9L3 8ZM13 9L13 10L14 10L14 9ZM23 9L23 10L24 10L24 9ZM5 10L5 11L4 11L4 12L5 12L5 13L6 13L6 14L7 14L7 13L6 13L6 12L7 12L7 11L6 11L6 10ZM5 11L5 12L6 12L6 11ZM9 11L9 13L10 13L10 11ZM0 12L0 13L1 13L1 12ZM24 13L24 15L23 15L23 16L24 16L24 19L23 19L23 23L25 23L25 22L24 22L24 20L25 20L25 13ZM3 14L3 15L5 15L5 14ZM17 14L17 15L18 15L18 16L19 16L19 15L18 15L18 14ZM17 17L17 20L20 20L20 17ZM18 18L18 19L19 19L19 18ZM9 19L9 20L11 20L11 19ZM16 21L16 23L17 23L17 22L18 22L18 23L19 23L19 22L20 22L20 21ZM20 23L20 24L21 24L21 23ZM24 24L24 25L25 25L25 24ZM0 0L0 7L7 7L7 0ZM1 1L1 6L6 6L6 1ZM2 2L2 5L5 5L5 2ZM18 0L18 7L25 7L25 0ZM19 1L19 6L24 6L24 1ZM20 2L20 5L23 5L23 2ZM0 18L0 25L7 25L7 18ZM1 19L1 24L6 24L6 19ZM2 20L2 23L5 23L5 20Z" fill="#000000"/></g></g></svg>
